<svg width="33" height="7" viewBox="0 0 33 7" fill="none" xmlns="http://www.w3.org/2000/svg">
<path d="M4.86115 2.29554V2.80014H5.50077V3.55347H4.86115V5.03172H3.98699L2.94227 3.55347H1.59906V5.03172H0.639623V3.55347H-1.57771e-06V2.80014H0.639623V2.29554H-1.57771e-06V1.54221H0.639623V0.0568572H1.51378L2.5656 1.54221H3.90171V0.0568572H4.86115V1.54221H5.50077V2.29554H4.86115ZM2.40925 2.80014L2.0539 2.29554H1.59906V2.80014H2.40925ZM3.90171 2.29554H3.09152L3.44686 2.80014H3.90171V2.29554ZM11.3618 2.46611C11.5561 2.57982 11.7053 2.71959 11.8096 2.88542C11.9185 3.05125 11.973 3.22418 11.973 3.40423V3.6885C11.973 3.96331 11.9043 4.20731 11.7669 4.42052C11.6295 4.63373 11.4353 4.79956 11.1842 4.918C10.9378 5.03172 10.6511 5.08857 10.3242 5.08857H9.63484C9.12788 5.08857 8.72989 4.94406 8.44088 4.65505C8.1566 4.36603 8.01446 3.96331 8.01446 3.44687H8.98101C8.98101 3.69324 9.03786 3.88513 9.15157 4.02253C9.26528 4.15519 9.42637 4.22152 9.63484 4.22152H10.3242C10.5232 4.22152 10.6843 4.17414 10.8075 4.07939C10.9307 3.97989 10.9923 3.84959 10.9923 3.6885V3.40423C10.9923 3.25735 10.9283 3.1389 10.8004 3.04888C10.6725 2.95886 10.5066 2.91385 10.3029 2.91385H9.39321V2.06101H10.3029C10.4829 2.06101 10.6274 2.01837 10.7364 1.93309C10.8454 1.84307 10.8999 1.72699 10.8999 1.58485V1.30057C10.8999 1.16791 10.8478 1.06367 10.7435 0.987867C10.6393 0.907321 10.5043 0.867048 10.3384 0.867048H9.64906C9.4548 0.867048 9.30319 0.935749 9.19421 1.07315C9.08998 1.20581 9.03786 1.39533 9.03786 1.6417H8.05C8.05 1.12527 8.18977 0.722541 8.46931 0.433525C8.75358 0.14451 9.14683 1.98938e-06 9.64906 1.98938e-06H10.3384C10.6417 1.98938e-06 10.9094 0.0544884 11.1415 0.163461C11.3784 0.272434 11.5608 0.426418 11.6887 0.625413C11.8167 0.819669 11.8806 1.04472 11.8806 1.30057V1.58485C11.8806 1.76015 11.8356 1.92361 11.7456 2.07523C11.6556 2.22684 11.5277 2.35714 11.3618 2.46611ZM14.9095 4.07939H12.884C12.6851 4.07939 12.5311 4.03674 12.4221 3.95146C12.3131 3.86618 12.2586 3.74299 12.2586 3.5819V3.38291L14.9024 0.0568572H15.8903V3.21234H16.5157V4.07939H15.8903V5.03172H14.9095V4.07939ZM14.938 3.25498V1.28636H14.9308L13.3744 3.25498H14.938ZM16.5732 5.65713L16.7864 5.46524C17.0328 5.24255 17.156 4.97249 17.156 4.65505V4.18599H18.1225V4.65505C18.1225 4.97249 18.0633 5.25914 17.9449 5.51499C17.8311 5.77084 17.6629 5.98641 17.4403 6.16172L17.1986 6.35361L16.5732 5.65713ZM20.328 5.08857C19.9964 5.08857 19.7026 5.0175 19.4468 4.87536C19.1909 4.72849 18.9919 4.52238 18.8498 4.25706C18.7076 3.99173 18.6366 3.68613 18.6366 3.34026V1.74831C18.6366 1.40244 18.7053 1.09684 18.8427 0.831514C18.9848 0.566188 19.1838 0.362456 19.4396 0.220317C19.6955 0.0734403 19.9916 1.98938e-06 20.328 1.98938e-06H21.0813C21.4083 1.98938e-06 21.6973 0.0734403 21.9484 0.220317C22.1995 0.362456 22.3938 0.566188 22.5312 0.831514C22.6733 1.09684 22.7444 1.40244 22.7444 1.74831V3.34026C22.7444 3.68613 22.6757 3.99173 22.5383 4.25706C22.4009 4.52238 22.2066 4.72849 21.9555 4.87536C21.7044 5.0175 21.413 5.08857 21.0813 5.08857H20.328ZM21.0671 4.22152C21.2756 4.22152 21.4414 4.14335 21.5646 3.987C21.6925 3.8259 21.7565 3.61507 21.7565 3.35448V1.7341C21.7565 1.47351 21.6925 1.26504 21.5646 1.10868C21.4414 0.947594 21.2756 0.867048 21.0671 0.867048H20.3422C20.1243 0.867048 19.949 0.947594 19.8163 1.10868C19.6836 1.26504 19.6173 1.47351 19.6173 1.7341V3.35448C19.6173 3.61507 19.6836 3.8259 19.8163 3.987C19.949 4.14335 20.1243 4.22152 20.3422 4.22152H21.0671ZM25.1169 5.08857C24.7852 5.08857 24.4915 5.0175 24.2356 4.87536C23.9798 4.72849 23.7808 4.52238 23.6386 4.25706C23.4965 3.99173 23.4254 3.68613 23.4254 3.34026V1.74831C23.4254 1.40244 23.4941 1.09684 23.6315 0.831514C23.7737 0.566188 23.9726 0.362456 24.2285 0.220317C24.4843 0.0734403 24.7805 1.98938e-06 25.1169 1.98938e-06H25.8702C26.1971 1.98938e-06 26.4861 0.0734403 26.7372 0.220317C26.9884 0.362456 27.1826 0.566188 27.32 0.831514C27.4622 1.09684 27.5332 1.40244 27.5332 1.74831V3.34026C27.5332 3.68613 27.4645 3.99173 27.3271 4.25706C27.1897 4.52238 26.9955 4.72849 26.7444 4.87536C26.4932 5.0175 26.2019 5.08857 25.8702 5.08857H25.1169ZM25.856 4.22152C26.0645 4.22152 26.2303 4.14335 26.3535 3.987C26.4814 3.8259 26.5454 3.61507 26.5454 3.35448V1.7341C26.5454 1.47351 26.4814 1.26504 26.3535 1.10868C26.2303 0.947594 26.0645 0.867048 25.856 0.867048H25.1311C24.9131 0.867048 24.7378 0.947594 24.6052 1.10868C24.4725 1.26504 24.4062 1.47351 24.4062 1.7341V3.35448C24.4062 3.61507 24.4725 3.8259 24.6052 3.987C24.7378 4.14335 24.9131 4.22152 25.1311 4.22152H25.856ZM29.9057 5.08857C29.5741 5.08857 29.2803 5.0175 29.0245 4.87536C28.7686 4.72849 28.5696 4.52238 28.4275 4.25706C28.2853 3.99173 28.2143 3.68613 28.2143 3.34026V1.74831C28.2143 1.40244 28.283 1.09684 28.4204 0.831514C28.5625 0.566188 28.7615 0.362456 29.0174 0.220317C29.2732 0.0734403 29.5693 1.98938e-06 29.9057 1.98938e-06H30.6591C30.986 1.98938e-06 31.275 0.0734403 31.5261 0.220317C31.7772 0.362456 31.9715 0.566188 32.1089 0.831514C32.251 1.09684 32.3221 1.40244 32.3221 1.74831V3.34026C32.3221 3.68613 32.2534 3.99173 32.116 4.25706C31.9786 4.52238 31.7843 4.72849 31.5332 4.87536C31.2821 5.0175 30.9907 5.08857 30.6591 5.08857H29.9057ZM30.6448 4.22152C30.8533 4.22152 31.0191 4.14335 31.1423 3.987C31.2703 3.8259 31.3342 3.61507 31.3342 3.35448V1.7341C31.3342 1.47351 31.2703 1.26504 31.1423 1.10868C31.0191 0.947594 30.8533 0.867048 30.6448 0.867048H29.9199C29.702 0.867048 29.5267 0.947594 29.394 1.10868C29.2614 1.26504 29.195 1.47351 29.195 1.7341V3.35448C29.195 3.61507 29.2614 3.8259 29.394 3.987C29.5267 4.14335 29.702 4.22152 29.9199 4.22152H30.6448Z" fill="#FE1E00"/>
</svg>
