<svg width="33" height="7" viewBox="0 0 33 7" fill="none" xmlns="http://www.w3.org/2000/svg">
<path d="M4.86115 2.29554V2.80014H5.50077V3.55347H4.86115V5.03172H3.987L2.94228 3.55347H1.59906V5.03172H0.639627V3.55347H2.23699e-06V2.80014H0.639627V2.29554H2.23699e-06V1.54221H0.639627V0.0568572H1.51378L2.56561 1.54221H3.90171V0.0568572H4.86115V1.54221H5.50077V2.29554H4.86115ZM2.40925 2.80014L2.05391 2.29554H1.59906V2.80014H2.40925ZM3.90171 2.29554H3.09152L3.44687 2.80014H3.90171V2.29554ZM9.64906 5.08857C9.15631 5.08857 8.77254 4.9488 8.49774 4.66926C8.22294 4.38972 8.08553 4.00121 8.08553 3.50372H9.05208C9.05208 3.72641 9.1042 3.90171 9.20843 4.02964C9.31267 4.15756 9.45954 4.22152 9.64906 4.22152H10.3313C10.5398 4.22152 10.7056 4.16467 10.8288 4.05096C10.9567 3.93725 11.0207 3.78563 11.0207 3.59611V3.21234C11.0207 3.04651 10.9544 2.91148 10.8217 2.80724C10.6938 2.70301 10.5232 2.65089 10.31 2.65089H8.2561V0.0568572H11.8167V0.923904H9.23686V1.78384H10.31C10.6464 1.78384 10.9425 1.84307 11.1984 1.96152C11.4542 2.07997 11.6508 2.24816 11.7883 2.46611C11.9304 2.67932 12.0015 2.92806 12.0015 3.21234V3.59611C12.0015 3.88987 11.9304 4.15045 11.7883 4.37788C11.6508 4.6053 11.4566 4.7806 11.2055 4.90379C10.9544 5.02698 10.663 5.08857 10.3313 5.08857H9.64906ZM12.4918 4.32102C12.4918 4.03674 12.544 3.79037 12.6482 3.5819C12.7524 3.37343 12.9301 3.19339 13.1812 3.04177L14.9437 1.98994C15.029 1.94257 15.0953 1.87623 15.1427 1.79095C15.1948 1.70567 15.2209 1.62038 15.2209 1.5351V1.30768C15.2209 1.17502 15.1712 1.06841 15.0717 0.987867C14.9769 0.907321 14.8513 0.867048 14.695 0.867048H14.0412C13.8564 0.867048 13.7119 0.935749 13.6076 1.07315C13.5034 1.20581 13.4513 1.39533 13.4513 1.6417H12.4705C12.4705 1.12527 12.6079 0.722541 12.8827 0.433525C13.1575 0.14451 13.5389 1.98938e-06 14.0269 1.98938e-06H14.695C14.9935 1.98938e-06 15.2564 0.0544884 15.4839 0.163461C15.7113 0.272434 15.8866 0.426418 16.0098 0.625413C16.1377 0.824407 16.2017 1.05183 16.2017 1.30768V1.5351C16.2017 1.79095 16.1472 2.01127 16.0382 2.19605C15.934 2.37609 15.7681 2.53244 15.5407 2.6651L13.8279 3.66008C13.7142 3.72641 13.6266 3.79985 13.565 3.88039C13.5081 3.96094 13.4797 4.06043 13.4797 4.17888H16.2301V5.03172H12.4918V4.32102ZM16.3581 5.65713L16.5713 5.46524C16.8176 5.24255 16.9408 4.97249 16.9408 4.65505V4.18599H17.9074V4.65505C17.9074 4.97249 17.8482 5.25914 17.7297 5.51499C17.616 5.77084 17.4478 5.98641 17.2251 6.16172L16.9835 6.35361L16.3581 5.65713ZM20.1129 5.08857C19.7812 5.08857 19.4875 5.0175 19.2316 4.87536C18.9758 4.72849 18.7768 4.52238 18.6346 4.25706C18.4925 3.99173 18.4214 3.68613 18.4214 3.34026V1.74831C18.4214 1.40244 18.4901 1.09684 18.6275 0.831514C18.7697 0.566188 18.9686 0.362456 19.2245 0.220317C19.4803 0.0734403 19.7765 1.98938e-06 20.1129 1.98938e-06H20.8662C21.1931 1.98938e-06 21.4821 0.0734403 21.7332 0.220317C21.9844 0.362456 22.1786 0.566188 22.316 0.831514C22.4582 1.09684 22.5292 1.40244 22.5292 1.74831V3.34026C22.5292 3.68613 22.4605 3.99173 22.3231 4.25706C22.1857 4.52238 21.9915 4.72849 21.7404 4.87536C21.4892 5.0175 21.1979 5.08857 20.8662 5.08857H20.1129ZM20.852 4.22152C21.0605 4.22152 21.2263 4.14335 21.3495 3.987C21.4774 3.8259 21.5414 3.61507 21.5414 3.35448V1.7341C21.5414 1.47351 21.4774 1.26504 21.3495 1.10868C21.2263 0.947594 21.0605 0.867048 20.852 0.867048H20.1271C19.9091 0.867048 19.7338 0.947594 19.6012 1.10868C19.4685 1.26504 19.4022 1.47351 19.4022 1.7341V3.35448C19.4022 3.61507 19.4685 3.8259 19.6012 3.987C19.7338 4.14335 19.9091 4.22152 20.1271 4.22152H20.852ZM24.9017 5.08857C24.5701 5.08857 24.2763 5.0175 24.0205 4.87536C23.7646 4.72849 23.5656 4.52238 23.4235 4.25706C23.2813 3.99173 23.2103 3.68613 23.2103 3.34026V1.74831C23.2103 1.40244 23.279 1.09684 23.4164 0.831514C23.5585 0.566188 23.7575 0.362456 24.0134 0.220317C24.2692 0.0734403 24.5653 1.98938e-06 24.9017 1.98938e-06H25.6551C25.982 1.98938e-06 26.271 0.0734403 26.5221 0.220317C26.7732 0.362456 26.9675 0.566188 27.1049 0.831514C27.247 1.09684 27.3181 1.40244 27.3181 1.74831V3.34026C27.3181 3.68613 27.2494 3.99173 27.112 4.25706C26.9746 4.52238 26.7803 4.72849 26.5292 4.87536C26.2781 5.0175 25.9867 5.08857 25.6551 5.08857H24.9017ZM25.6408 4.22152C25.8493 4.22152 26.0151 4.14335 26.1383 3.987C26.2663 3.8259 26.3302 3.61507 26.3302 3.35448V1.7341C26.3302 1.47351 26.2663 1.26504 26.1383 1.10868C26.0151 0.947594 25.8493 0.867048 25.6408 0.867048H24.9159C24.698 0.867048 24.5227 0.947594 24.39 1.10868C24.2574 1.26504 24.191 1.47351 24.191 1.7341V3.35448C24.191 3.61507 24.2574 3.8259 24.39 3.987C24.5227 4.14335 24.698 4.22152 24.9159 4.22152H25.6408ZM29.6906 5.08857C29.3589 5.08857 29.0652 5.0175 28.8093 4.87536C28.5535 4.72849 28.3545 4.52238 28.2123 4.25706C28.0702 3.99173 27.9991 3.68613 27.9991 3.34026V1.74831C27.9991 1.40244 28.0678 1.09684 28.2052 0.831514C28.3474 0.566188 28.5464 0.362456 28.8022 0.220317C29.0581 0.0734403 29.3542 1.98938e-06 29.6906 1.98938e-06H30.4439C30.7708 1.98938e-06 31.0598 0.0734403 31.311 0.220317C31.5621 0.362456 31.7563 0.566188 31.8937 0.831514C32.0359 1.09684 32.1069 1.40244 32.1069 1.74831V3.34026C32.1069 3.68613 32.0382 3.99173 31.9008 4.25706C31.7634 4.52238 31.5692 4.72849 31.3181 4.87536C31.067 5.0175 30.7756 5.08857 30.4439 5.08857H29.6906ZM30.4297 4.22152C30.6382 4.22152 30.804 4.14335 30.9272 3.987C31.0551 3.8259 31.1191 3.61507 31.1191 3.35448V1.7341C31.1191 1.47351 31.0551 1.26504 30.9272 1.10868C30.804 0.947594 30.6382 0.867048 30.4297 0.867048H29.7048C29.4868 0.867048 29.3115 0.947594 29.1789 1.10868C29.0462 1.26504 28.9799 1.47351 28.9799 1.7341V3.35448C28.9799 3.61507 29.0462 3.8259 29.1789 3.987C29.3115 4.14335 29.4868 4.22152 29.7048 4.22152H30.4297Z" fill="#00FE93"/>
</svg>
