<svg width="32" height="7" viewBox="0 0 32 7" fill="none" xmlns="http://www.w3.org/2000/svg">
<path d="M4.86115 2.29554V2.80014H5.50077V3.55347H4.86115V5.03172H3.98699L2.94227 3.55347H1.59906V5.03172H0.639623V3.55347H-1.57771e-06V2.80014H0.639623V2.29554H-1.57771e-06V1.54221H0.639623V0.0568572H1.51378L2.5656 1.54221H3.90171V0.0568572H4.86115V1.54221H5.50077V2.29554H4.86115ZM2.40925 2.80014L2.0539 2.29554H1.59906V2.80014H2.40925ZM3.90171 2.29554H3.09152L3.44686 2.80014H3.90171V2.29554ZM8.05 4.32102C8.05 4.03674 8.10211 3.79037 8.20635 3.5819C8.31058 3.37343 8.48826 3.19339 8.73937 3.04177L10.5019 1.98994C10.5872 1.94257 10.6535 1.87623 10.7009 1.79095C10.753 1.70567 10.7791 1.62038 10.7791 1.5351V1.30768C10.7791 1.17502 10.7293 1.06841 10.6298 0.987867C10.5351 0.907321 10.4095 0.867048 10.2531 0.867048H9.59931C9.41453 0.867048 9.27002 0.935749 9.16579 1.07315C9.06155 1.20581 9.00943 1.39533 9.00943 1.6417H8.02868C8.02868 1.12527 8.16608 0.722541 8.44088 0.433525C8.71568 0.14451 9.09709 1.98938e-06 9.58509 1.98938e-06H10.2531C10.5516 1.98938e-06 10.8146 0.0544884 11.042 0.163461C11.2694 0.272434 11.4447 0.426418 11.5679 0.625413C11.6959 0.824407 11.7598 1.05183 11.7598 1.30768V1.5351C11.7598 1.79095 11.7053 2.01127 11.5964 2.19605C11.4921 2.37609 11.3263 2.53244 11.0989 2.6651L9.3861 3.66008C9.27239 3.72641 9.18474 3.79985 9.12314 3.88039C9.06629 3.96094 9.03786 4.06043 9.03786 4.17888H11.7882V5.03172H8.05V4.32102ZM12.1934 4.32102C12.1934 4.03674 12.2455 3.79037 12.3497 3.5819C12.454 3.37343 12.6317 3.19339 12.8828 3.04177L14.6453 1.98994C14.7306 1.94257 14.7969 1.87623 14.8443 1.79095C14.8964 1.70567 14.9225 1.62038 14.9225 1.5351V1.30768C14.9225 1.17502 14.8727 1.06841 14.7732 0.987867C14.6785 0.907321 14.5529 0.867048 14.3965 0.867048H13.7427C13.5579 0.867048 13.4134 0.935749 13.3092 1.07315C13.205 1.20581 13.1528 1.39533 13.1528 1.6417H12.1721C12.1721 1.12527 12.3095 0.722541 12.5843 0.433525C12.8591 0.14451 13.2405 1.98938e-06 13.7285 1.98938e-06H14.3965C14.695 1.98938e-06 14.958 0.0544884 15.1854 0.163461C15.4128 0.272434 15.5881 0.426418 15.7113 0.625413C15.8393 0.824407 15.9032 1.05183 15.9032 1.30768V1.5351C15.9032 1.79095 15.8487 2.01127 15.7398 2.19605C15.6355 2.37609 15.4697 2.53244 15.2423 2.6651L13.5295 3.66008C13.4158 3.72641 13.3281 3.79985 13.2665 3.88039C13.2097 3.96094 13.1813 4.06043 13.1813 4.17888H15.9316V5.03172H12.1934V4.32102ZM16.0596 5.65713L16.2728 5.46524C16.5192 5.24255 16.6424 4.97249 16.6424 4.65505V4.18599H17.6089V4.65505C17.6089 4.97249 17.5497 5.25914 17.4313 5.51499C17.3176 5.77084 17.1494 5.98641 16.9267 6.16172L16.685 6.35361L16.0596 5.65713ZM19.8144 5.08857C19.4828 5.08857 19.189 5.0175 18.9332 4.87536C18.6773 4.72849 18.4783 4.52238 18.3362 4.25706C18.194 3.99173 18.123 3.68613 18.123 3.34026V1.74831C18.123 1.40244 18.1917 1.09684 18.3291 0.831514C18.4712 0.566188 18.6702 0.362456 18.9261 0.220317C19.1819 0.0734403 19.478 1.98938e-06 19.8144 1.98938e-06H20.5678C20.8947 1.98938e-06 21.1837 0.0734403 21.4348 0.220317C21.6859 0.362456 21.8802 0.566188 22.0176 0.831514C22.1597 1.09684 22.2308 1.40244 22.2308 1.74831V3.34026C22.2308 3.68613 22.1621 3.99173 22.0247 4.25706C21.8873 4.52238 21.693 4.72849 21.4419 4.87536C21.1908 5.0175 20.8994 5.08857 20.5678 5.08857H19.8144ZM20.5535 4.22152C20.762 4.22152 20.9278 4.14335 21.051 3.987C21.179 3.8259 21.2429 3.61507 21.2429 3.35448V1.7341C21.2429 1.47351 21.179 1.26504 21.051 1.10868C20.9278 0.947594 20.762 0.867048 20.5535 0.867048H19.8286C19.6107 0.867048 19.4354 0.947594 19.3027 1.10868C19.1701 1.26504 19.1037 1.47351 19.1037 1.7341V3.35448C19.1037 3.61507 19.1701 3.8259 19.3027 3.987C19.4354 4.14335 19.6107 4.22152 19.8286 4.22152H20.5535ZM24.6033 5.08857C24.2716 5.08857 23.9779 5.0175 23.722 4.87536C23.4662 4.72849 23.2672 4.52238 23.125 4.25706C22.9829 3.99173 22.9118 3.68613 22.9118 3.34026V1.74831C22.9118 1.40244 22.9805 1.09684 23.1179 0.831514C23.2601 0.566188 23.4591 0.362456 23.7149 0.220317C23.9708 0.0734403 24.2669 1.98938e-06 24.6033 1.98938e-06H25.3566C25.6835 1.98938e-06 25.9726 0.0734403 26.2237 0.220317C26.4748 0.362456 26.669 0.566188 26.8064 0.831514C26.9486 1.09684 27.0196 1.40244 27.0196 1.74831V3.34026C27.0196 3.68613 26.9509 3.99173 26.8135 4.25706C26.6761 4.52238 26.4819 4.72849 26.2308 4.87536C25.9797 5.0175 25.6883 5.08857 25.3566 5.08857H24.6033ZM25.3424 4.22152C25.5509 4.22152 25.7167 4.14335 25.8399 3.987C25.9678 3.8259 26.0318 3.61507 26.0318 3.35448V1.7341C26.0318 1.47351 25.9678 1.26504 25.8399 1.10868C25.7167 0.947594 25.5509 0.867048 25.3424 0.867048H24.6175C24.3995 0.867048 24.2242 0.947594 24.0916 1.10868C23.9589 1.26504 23.8926 1.47351 23.8926 1.7341V3.35448C23.8926 3.61507 23.9589 3.8259 24.0916 3.987C24.2242 4.14335 24.3995 4.22152 24.6175 4.22152H25.3424ZM29.3921 5.08857C29.0605 5.08857 28.7667 5.0175 28.5109 4.87536C28.255 4.72849 28.056 4.52238 27.9139 4.25706C27.7718 3.99173 27.7007 3.68613 27.7007 3.34026V1.74831C27.7007 1.40244 27.7694 1.09684 27.9068 0.831514C28.0489 0.566188 28.2479 0.362456 28.5038 0.220317C28.7596 0.0734403 29.0557 1.98938e-06 29.3921 1.98938e-06H30.1455C30.4724 1.98938e-06 30.7614 0.0734403 31.0125 0.220317C31.2636 0.362456 31.4579 0.566188 31.5953 0.831514C31.7374 1.09684 31.8085 1.40244 31.8085 1.74831V3.34026C31.8085 3.68613 31.7398 3.99173 31.6024 4.25706C31.465 4.52238 31.2707 4.72849 31.0196 4.87536C30.7685 5.0175 30.4771 5.08857 30.1455 5.08857H29.3921ZM30.1313 4.22152C30.3397 4.22152 30.5056 4.14335 30.6287 3.987C30.7567 3.8259 30.8206 3.61507 30.8206 3.35448V1.7341C30.8206 1.47351 30.7567 1.26504 30.6287 1.10868C30.5056 0.947594 30.3397 0.867048 30.1313 0.867048H29.4064C29.1884 0.867048 29.0131 0.947594 28.8804 1.10868C28.7478 1.26504 28.6814 1.47351 28.6814 1.7341V3.35448C28.6814 3.61507 28.7478 3.8259 28.8804 3.987C29.0131 4.14335 29.1884 4.22152 29.4064 4.22152H30.1313Z" fill="#FE1E00"/>
</svg>
